<svg width="163" height="25" viewBox="0 0 163 25" fill="none" xmlns="http://www.w3.org/2000/svg">
<path d="M14.8589 7.69141H12.3159L11.9644 5.41797C11.6284 5.08203 11.2026 4.81641 10.687 4.62109C10.1792 4.42578 9.57764 4.32812 8.88232 4.32812C7.39795 4.32812 6.25342 4.86719 5.44873 5.94531C4.65186 7.02344 4.25342 8.42969 4.25342 10.1641V10.7617C4.25342 12.4961 4.65186 13.9062 5.44873 14.9922C6.24561 16.0781 7.37061 16.6211 8.82373 16.6211C9.49561 16.6211 10.1089 16.5234 10.6636 16.3281C11.2261 16.1328 11.6597 15.8672 11.9644 15.5312L12.3159 13.2578H14.8589V16.6328C14.1714 17.4297 13.2925 18.0664 12.2222 18.543C11.1597 19.0117 9.96826 19.2461 8.64795 19.2461C6.35889 19.2461 4.48389 18.4531 3.02295 16.8672C1.56201 15.2812 0.831543 13.2461 0.831543 10.7617V10.1875C0.831543 7.71094 1.55811 5.67578 3.01123 4.08203C4.46436 2.48828 6.34326 1.69141 8.64795 1.69141C9.96826 1.69141 11.1597 1.93359 12.2222 2.41797C13.2847 2.89453 14.1636 3.52734 14.8589 4.31641V7.69141ZM24.5972 19C24.5034 18.7891 24.4214 18.5742 24.3511 18.3555C24.2808 18.1289 24.2261 17.9023 24.187 17.6758C23.7808 18.1445 23.2847 18.5234 22.6987 18.8125C22.1206 19.1016 21.4565 19.2461 20.7065 19.2461C19.4644 19.2461 18.4761 18.9102 17.7417 18.2383C17.0151 17.5586 16.6519 16.6367 16.6519 15.4727C16.6519 14.2852 17.1284 13.3672 18.0815 12.7188C19.0347 12.0703 20.4331 11.7461 22.2769 11.7461H24.0229V10.5039C24.0229 9.89453 23.8472 9.42188 23.4956 9.08594C23.144 8.75 22.6245 8.58203 21.937 8.58203C21.5464 8.58203 21.1987 8.62891 20.894 8.72266C20.5894 8.80859 20.3433 8.91406 20.1558 9.03906L19.9331 10.3984H17.355L17.3667 7.58594C17.9917 7.16406 18.7065 6.80859 19.5112 6.51953C20.3237 6.23047 21.2065 6.08594 22.1597 6.08594C23.73 6.08594 25.0034 6.47266 25.98 7.24609C26.9644 8.01172 27.4565 9.10547 27.4565 10.5273V15.7656C27.4565 15.9609 27.4565 16.1445 27.4565 16.3164C27.4644 16.4883 27.48 16.6523 27.5034 16.8086L28.5464 16.9492V19H24.5972ZM21.6323 16.7148C22.1479 16.7148 22.6167 16.6055 23.0386 16.3867C23.4604 16.1602 23.7886 15.8789 24.0229 15.543V13.6094H22.2769C21.5503 13.6094 20.9995 13.7812 20.6245 14.125C20.2495 14.4609 20.062 14.8672 20.062 15.3438C20.062 15.7734 20.1987 16.1094 20.4722 16.3516C20.7534 16.5938 21.1401 16.7148 21.6323 16.7148ZM29.5308 16.9492L31.1831 16.5977V3.13281L29.355 2.78125V0.71875H34.5933V7.9375C34.9917 7.35156 35.48 6.89844 36.0581 6.57812C36.6362 6.25 37.2769 6.08594 37.98 6.08594C39.3081 6.08594 40.3472 6.52734 41.0972 7.41016C41.855 8.28516 42.2339 9.64062 42.2339 11.4766V16.5977L43.8745 16.9492V19H37.3354V16.9492L38.812 16.5977V11.4531C38.812 10.4688 38.6362 9.77344 38.2847 9.36719C37.9409 8.95312 37.4253 8.74609 36.7378 8.74609C36.2612 8.74609 35.8433 8.83203 35.4839 9.00391C35.1323 9.17578 34.8354 9.41797 34.5933 9.73047V16.5977L36.0698 16.9492V19H29.5308V16.9492ZM58.1011 8.38281L56.9175 8.55859L52.2534 20.8984C51.8862 21.8125 51.394 22.5781 50.7769 23.1953C50.1675 23.8125 49.2456 24.1211 48.0112 24.1211C47.7222 24.1211 47.4487 24.0977 47.1909 24.0508C46.9409 24.0039 46.644 23.9375 46.3003 23.8516L46.6987 21.3555C46.8081 21.3711 46.9214 21.3867 47.0386 21.4023C47.1558 21.418 47.2573 21.4258 47.3433 21.4258C47.9136 21.4258 48.3511 21.2852 48.6558 21.0039C48.9604 20.7305 49.1948 20.3867 49.3589 19.9727L49.7456 19.0117L45.7261 8.57031L44.5425 8.38281V6.32031H50.7534V8.38281L49.3354 8.61719L51.0698 13.6797L51.2456 14.5938L51.3159 14.6055L53.3198 8.61719L51.8901 8.38281V6.32031H58.1011V8.38281ZM58.9917 12.543C58.9917 10.6523 59.519 9.10547 60.5737 7.90234C61.6362 6.69141 63.1011 6.08594 64.9683 6.08594C66.8433 6.08594 68.3081 6.6875 69.3628 7.89062C70.4253 9.09375 70.9565 10.6445 70.9565 12.543V12.7891C70.9565 14.6953 70.4253 16.25 69.3628 17.4531C68.3081 18.6484 66.8511 19.2461 64.9917 19.2461C63.1089 19.2461 61.6362 18.6484 60.5737 17.4531C59.519 16.25 58.9917 14.6953 58.9917 12.7891V12.543ZM62.4136 12.7891C62.4136 13.9453 62.6167 14.875 63.0229 15.5781C63.4292 16.2734 64.0854 16.6211 64.9917 16.6211C65.8745 16.6211 66.519 16.2695 66.9253 15.5664C67.3394 14.8633 67.5464 13.9375 67.5464 12.7891V12.543C67.5464 11.418 67.3394 10.5 66.9253 9.78906C66.5112 9.07812 65.8589 8.72266 64.9683 8.72266C64.0776 8.72266 63.4292 9.07812 63.0229 9.78906C62.6167 10.5 62.4136 11.418 62.4136 12.543V12.7891ZM85.9214 1.9375C88.0073 1.9375 89.7261 2.60547 91.0776 3.94141C92.4292 5.26953 93.105 6.97656 93.105 9.0625V11.8867C93.105 13.9805 92.4292 15.6914 91.0776 17.0195C89.7261 18.3398 88.0073 19 85.9214 19H78.2456V16.9492L80.062 16.5977V4.35156L78.2456 4V1.9375H80.062H85.9214ZM83.4839 4.57422V16.375H85.7456C86.9722 16.375 87.9331 15.9609 88.6284 15.1328C89.3237 14.3047 89.6714 13.2227 89.6714 11.8867V9.03906C89.6714 7.71875 89.3237 6.64453 88.6284 5.81641C87.9331 4.98828 86.9722 4.57422 85.7456 4.57422H83.4839ZM112.945 8.38281L111.667 8.54688L109.019 19H106.16L103.804 11.4531H103.734L101.378 19H98.5308L95.8706 8.54688L94.5933 8.38281V6.32031H100.335V8.38281L98.9878 8.64062L100.183 14.4414H100.253L102.621 6.32031H104.917L107.308 14.4648H107.378L108.562 8.65234L107.203 8.38281V6.32031H112.945V8.38281ZM114.011 16.9492L115.664 16.5977V8.73438L113.835 8.38281V6.32031H119.085V16.5977L120.726 16.9492V19H114.011V16.9492ZM119.085 3.28516H115.664V0.71875H119.085V3.28516ZM121.664 16.9492L123.304 16.5977V8.73438L121.488 8.38281V6.32031H126.492L126.644 8.13672C127.066 7.48828 127.585 6.98438 128.203 6.625C128.82 6.26562 129.511 6.08594 130.277 6.08594C131.558 6.08594 132.558 6.48828 133.277 7.29297C133.996 8.09766 134.355 9.35938 134.355 11.0781V16.5977L135.996 16.9492V19H129.457V16.9492L130.921 16.5977V11.0898C130.921 10.2383 130.75 9.63672 130.406 9.28516C130.062 8.92578 129.542 8.74609 128.847 8.74609C128.394 8.74609 127.988 8.83984 127.628 9.02734C127.269 9.20703 126.968 9.46484 126.726 9.80078V16.5977L128.109 16.9492V19H121.664V16.9492ZM136.968 12.543C136.968 10.6523 137.496 9.10547 138.55 7.90234C139.613 6.69141 141.078 6.08594 142.945 6.08594C144.82 6.08594 146.285 6.6875 147.339 7.89062C148.402 9.09375 148.933 10.6445 148.933 12.543V12.7891C148.933 14.6953 148.402 16.25 147.339 17.4531C146.285 18.6484 144.828 19.2461 142.968 19.2461C141.085 19.2461 139.613 18.6484 138.55 17.4531C137.496 16.25 136.968 14.6953 136.968 12.7891V12.543ZM140.39 12.7891C140.39 13.9453 140.593 14.875 141 15.5781C141.406 16.2734 142.062 16.6211 142.968 16.6211C143.851 16.6211 144.496 16.2695 144.902 15.5664C145.316 14.8633 145.523 13.9375 145.523 12.7891V12.543C145.523 11.418 145.316 10.5 144.902 9.78906C144.488 9.07812 143.835 8.72266 142.945 8.72266C142.054 8.72266 141.406 9.07812 141 9.78906C140.593 10.5 140.39 11.418 140.39 12.543V12.7891ZM155.613 8.38281L154.417 8.60547L156.093 14.2773L156.316 15.4727H156.386L156.632 14.2773L158.285 8.61719L157.066 8.38281V6.32031H162.82V8.38281L161.718 8.55859L157.98 19H154.71L150.96 8.55859L149.859 8.38281V6.32031H155.613V8.38281Z" fill="black"/>
</svg>
